<svg id="visual" viewBox="0 0 1920 1080" width="1920" height="1080" xmlns="http://www.w3.org/2000/svg" xmlns:xlink="http://www.w3.org/1999/xlink" version="1.1"><rect x="0" y="0" width="1920" height="1080" fill="#263544"></rect><path d="M0 826L45.7 805.8C91.3 785.7 182.7 745.3 274.2 747.7C365.7 750 457.3 795 548.8 823.2C640.3 851.3 731.7 862.7 823 852.7C914.3 842.7 1005.7 811.3 1097 795.5C1188.3 779.7 1279.7 779.3 1371.2 783.7C1462.7 788 1554.3 797 1645.8 786.8C1737.3 776.7 1828.7 747.3 1874.3 732.7L1920 718L1920 1081L1874.3 1081C1828.7 1081 1737.3 1081 1645.8 1081C1554.3 1081 1462.7 1081 1371.2 1081C1279.7 1081 1188.3 1081 1097 1081C1005.7 1081 914.3 1081 823 1081C731.7 1081 640.3 1081 548.8 1081C457.3 1081 365.7 1081 274.2 1081C182.7 1081 91.3 1081 45.7 1081L0 1081Z" fill="#d3384b" stroke-linecap="round" stroke-linejoin="miter"></path></svg>