<svg width="267" height="31" viewBox="0 0 267 31" fill="none" xmlns="http://www.w3.org/2000/svg">
<path d="M10.48 30.4C8.45333 30.4267 6.69333 30.1067 5.2 29.44C3.70667 28.7733 2.28 27.7733 0.92 26.44C0.786667 26.3333 0.666667 26.2 0.56 26.04C0.48 25.88 0.44 25.6933 0.44 25.48C0.44 25.16 0.56 24.8667 0.8 24.6C1.06667 24.3333 1.36 24.2 1.68 24.2C2 24.2 2.29333 24.3333 2.56 24.6C3.6 25.72 4.77333 26.5733 6.08 27.16C7.41333 27.7467 8.84 28.04 10.36 28.04C11.64 28.04 12.7733 27.84 13.76 27.44C14.7733 27.04 15.5733 26.4667 16.16 25.72C16.7467 24.9733 17.04 24.1067 17.04 23.12C17.04 21.8933 16.7067 20.9067 16.04 20.16C15.3733 19.3867 14.4933 18.76 13.4 18.28C12.3067 17.7733 11.0933 17.32 9.76 16.92C8.66667 16.6 7.62667 16.24 6.64 15.84C5.65333 15.4133 4.77333 14.9067 4 14.32C3.22667 13.7067 2.62667 12.96 2.2 12.08C1.77333 11.2 1.56 10.1333 1.56 8.88C1.56 7.46667 1.93333 6.21333 2.68 5.12C3.42667 4.02666 4.48 3.17333 5.84 2.56C7.22667 1.92 8.82667 1.6 10.64 1.6C12.2133 1.6 13.72 1.86666 15.16 2.4C16.6267 2.93333 17.7867 3.72 18.64 4.76C19.04 5.18667 19.24 5.57333 19.24 5.92C19.24 6.18667 19.1067 6.45333 18.84 6.72C18.5733 6.98667 18.28 7.12 17.96 7.12C17.6933 7.12 17.4667 7.02667 17.28 6.84C16.8267 6.28 16.2533 5.78667 15.56 5.36C14.8667 4.90667 14.0933 4.56 13.24 4.32C12.4133 4.08 11.5467 3.96 10.64 3.96C9.38667 3.96 8.25333 4.16 7.24 4.56C6.25333 4.93333 5.46667 5.48 4.88 6.2C4.32 6.92 4.04 7.78667 4.04 8.8C4.04 9.92 4.36 10.84 5 11.56C5.64 12.28 6.48 12.88 7.52 13.36C8.56 13.8133 9.66667 14.24 10.84 14.64C11.9867 14.96 13.08 15.3333 14.12 15.76C15.1867 16.16 16.12 16.6667 16.92 17.28C17.7467 17.8933 18.3867 18.6667 18.84 19.6C19.32 20.5333 19.56 21.7067 19.56 23.12C19.56 24.48 19.1733 25.7067 18.4 26.8C17.6267 27.8933 16.56 28.76 15.2 29.4C13.8667 30.04 12.2933 30.3733 10.48 30.4ZM33.8209 9.4C35.4743 9.4 36.8876 9.84 38.0609 10.72C39.2343 11.5733 40.0343 12.8533 40.4609 14.56L39.9009 14.72L40.1409 14C40.4876 13.2 41.0609 12.4533 41.8609 11.76C42.6876 11.04 43.6209 10.4667 44.6609 10.04C45.7009 9.61333 46.7543 9.4 47.8209 9.4C49.5009 9.4 50.8476 9.76 51.8609 10.48C52.9009 11.2 53.6476 12.1733 54.1009 13.4C54.5809 14.6 54.8209 15.96 54.8209 17.48V28.8C54.8209 29.12 54.7009 29.4 54.4609 29.64C54.2476 29.88 53.9676 30 53.6209 30C53.2743 30 52.9809 29.88 52.7409 29.64C52.5276 29.4 52.4209 29.12 52.4209 28.8V17.6C52.4209 16.5067 52.2476 15.5067 51.9009 14.6C51.5543 13.6933 51.0076 12.9733 50.2609 12.44C49.5143 11.9067 48.5143 11.64 47.2609 11.64C46.1676 11.64 45.1143 11.9067 44.1009 12.44C43.1143 12.9733 42.3009 13.6933 41.6609 14.6C41.0476 15.5067 40.7409 16.5067 40.7409 17.6V28.8C40.7409 29.12 40.6209 29.4 40.3809 29.64C40.1676 29.88 39.8876 30 39.5409 30C39.1943 30 38.9009 29.88 38.6609 29.64C38.4476 29.4 38.3409 29.12 38.3409 28.8V17.48C38.3409 16.3867 38.1809 15.4 37.8609 14.52C37.5409 13.64 37.0209 12.9467 36.3009 12.44C35.5809 11.9067 34.6076 11.64 33.3809 11.64C32.2876 11.64 31.2476 11.9067 30.2609 12.44C29.3009 12.9467 28.5143 13.64 27.9009 14.52C27.3143 15.4 27.0209 16.3867 27.0209 17.48V28.8C27.0209 29.12 26.9009 29.4 26.6609 29.64C26.4209 29.88 26.1409 30 25.8209 30C25.4476 30 25.1543 29.88 24.9409 29.64C24.7276 29.4 24.6209 29.12 24.6209 28.8V10.88C24.6209 10.56 24.7276 10.28 24.9409 10.04C25.1809 9.8 25.4743 9.68 25.8209 9.68C26.1676 9.68 26.4476 9.8 26.6609 10.04C26.9009 10.28 27.0209 10.56 27.0209 10.88V14.6L25.9409 16.08C26.0209 15.28 26.2743 14.48 26.7009 13.68C27.1543 12.88 27.7409 12.16 28.4609 11.52C29.1809 10.88 29.9943 10.3733 30.9009 10C31.8343 9.6 32.8076 9.4 33.8209 9.4ZM77.8653 9.56C78.212 9.56 78.492 9.68 78.7053 9.92C78.9453 10.16 79.0653 10.4533 79.0653 10.8V28.8C79.0653 29.12 78.9453 29.4 78.7053 29.64C78.4653 29.88 78.1853 30 77.8653 30C77.5186 30 77.2253 29.88 76.9853 29.64C76.772 29.4 76.6653 29.12 76.6653 28.8V24.04L77.3453 23.72C77.3453 24.4667 77.132 25.2267 76.7053 26C76.3053 26.7733 75.7453 27.4933 75.0253 28.16C74.3053 28.8267 73.452 29.3733 72.4653 29.8C71.5053 30.2 70.4653 30.4 69.3453 30.4C67.532 30.4 65.9053 29.9333 64.4653 29C63.052 28.0667 61.932 26.7867 61.1053 25.16C60.3053 23.5333 59.9053 21.7067 59.9053 19.68C59.9053 17.6 60.3186 15.7733 61.1453 14.2C61.972 12.6 63.092 11.3467 64.5053 10.44C65.9186 9.53333 67.5186 9.08 69.3053 9.08C70.452 9.08 71.5186 9.28 72.5053 9.68C73.5186 10.08 74.3986 10.6267 75.1453 11.32C75.892 12.0133 76.4653 12.8133 76.8653 13.72C77.292 14.6 77.5053 15.52 77.5053 16.48L76.6653 15.88V10.8C76.6653 10.4533 76.772 10.16 76.9853 9.92C77.2253 9.68 77.5186 9.56 77.8653 9.56ZM69.5453 28.16C70.9586 28.16 72.212 27.8 73.3053 27.08C74.3986 26.3333 75.252 25.32 75.8653 24.04C76.5053 22.7333 76.8253 21.28 76.8253 19.68C76.8253 18.1067 76.5053 16.6933 75.8653 15.44C75.252 14.1867 74.3986 13.1867 73.3053 12.44C72.212 11.6933 70.9586 11.32 69.5453 11.32C68.1586 11.32 66.9053 11.68 65.7853 12.4C64.692 13.12 63.8253 14.1067 63.1853 15.36C62.572 16.6133 62.2653 18.0533 62.2653 19.68C62.2653 21.28 62.572 22.7333 63.1853 24.04C63.8253 25.32 64.692 26.3333 65.7853 27.08C66.8786 27.8 68.132 28.16 69.5453 28.16ZM86.5631 30C86.1898 30 85.8965 29.88 85.6831 29.64C85.4698 29.4 85.3631 29.12 85.3631 28.8V10.88C85.3631 10.56 85.4698 10.28 85.6831 10.04C85.9231 9.8 86.2165 9.68 86.5631 9.68C86.9098 9.68 87.1898 9.8 87.4031 10.04C87.6431 10.28 87.7631 10.56 87.7631 10.88V16.88L87.1631 17C87.2431 16.0667 87.4698 15.1467 87.8431 14.24C88.2431 13.3067 88.7765 12.4533 89.4431 11.68C90.1098 10.9067 90.8965 10.28 91.8031 9.8C92.7365 9.32 93.7765 9.08 94.9231 9.08C95.4031 9.08 95.8698 9.18667 96.3231 9.4C96.7765 9.58667 97.0031 9.90667 97.0031 10.36C97.0031 10.76 96.8965 11.0667 96.6831 11.28C96.4698 11.4933 96.2165 11.6 95.9231 11.6C95.6831 11.6 95.4165 11.5333 95.1231 11.4C94.8565 11.2667 94.4965 11.2 94.0431 11.2C93.2965 11.2 92.5498 11.4267 91.8031 11.88C91.0565 12.3067 90.3765 12.8933 89.7631 13.64C89.1498 14.3867 88.6565 15.2267 88.2831 16.16C87.9365 17.0667 87.7631 17.9867 87.7631 18.92V28.8C87.7631 29.12 87.6431 29.4 87.4031 29.64C87.1631 29.88 86.8831 30 86.5631 30ZM99.4338 9.64H108.754C109.074 9.64 109.34 9.76 109.554 10C109.767 10.2133 109.874 10.48 109.874 10.8C109.874 11.0933 109.767 11.3467 109.554 11.56C109.34 11.7733 109.074 11.88 108.754 11.88H99.4338C99.1138 11.88 98.8338 11.7733 98.5938 11.56C98.3804 11.32 98.2738 11.0533 98.2738 10.76C98.2738 10.44 98.3804 10.1733 98.5938 9.96C98.8338 9.74667 99.1138 9.64 99.4338 9.64ZM103.554 4C103.9 4 104.18 4.12 104.394 4.36C104.634 4.6 104.754 4.88 104.754 5.2V25.28C104.754 26.0267 104.847 26.5867 105.034 26.96C105.247 27.3333 105.514 27.5867 105.834 27.72C106.154 27.8267 106.474 27.88 106.794 27.88C107.007 27.88 107.194 27.8533 107.354 27.8C107.54 27.72 107.74 27.68 107.954 27.68C108.194 27.68 108.394 27.7733 108.554 27.96C108.74 28.1467 108.834 28.3867 108.834 28.68C108.834 29.0533 108.62 29.3733 108.194 29.64C107.767 29.88 107.26 30 106.674 30C106.434 30 106.074 29.9867 105.594 29.96C105.114 29.9067 104.62 29.76 104.114 29.52C103.607 29.2533 103.18 28.8 102.834 28.16C102.514 27.52 102.354 26.6 102.354 25.4V5.2C102.354 4.88 102.46 4.6 102.674 4.36C102.914 4.12 103.207 4 103.554 4ZM156.967 0.4C157.314 0.4 157.594 0.52 157.807 0.76C158.047 0.973332 158.167 1.25333 158.167 1.6V28.8C158.167 29.12 158.047 29.4 157.807 29.64C157.567 29.88 157.287 30 156.967 30C156.62 30 156.327 29.88 156.087 29.64C155.874 29.4 155.767 29.12 155.767 28.8V24.04L156.447 23.48C156.447 24.2267 156.247 25.0133 155.847 25.84C155.447 26.64 154.874 27.3867 154.127 28.08C153.407 28.7733 152.554 29.3333 151.567 29.76C150.607 30.1867 149.567 30.4 148.447 30.4C146.66 30.4 145.047 29.9333 143.607 29C142.194 28.0667 141.074 26.8 140.247 25.2C139.42 23.6 139.007 21.7733 139.007 19.72C139.007 17.6933 139.42 15.88 140.247 14.28C141.074 12.6533 142.194 11.3867 143.607 10.48C145.02 9.54667 146.62 9.08 148.407 9.08C149.5 9.08 150.54 9.28 151.527 9.68C152.514 10.08 153.38 10.6267 154.127 11.32C154.9 12.0133 155.5 12.8133 155.927 13.72C156.38 14.6 156.607 15.52 156.607 16.48L155.767 15.88V1.6C155.767 1.28 155.874 0.999998 156.087 0.76C156.327 0.52 156.62 0.4 156.967 0.4ZM148.647 28.16C150.087 28.16 151.34 27.8 152.407 27.08C153.5 26.3333 154.354 25.3333 154.967 24.08C155.607 22.8 155.927 21.3467 155.927 19.72C155.927 18.12 155.607 16.6933 154.967 15.44C154.354 14.16 153.5 13.16 152.407 12.44C151.314 11.6933 150.06 11.32 148.647 11.32C147.26 11.32 146.007 11.6933 144.887 12.44C143.794 13.16 142.927 14.16 142.287 15.44C141.674 16.6933 141.367 18.12 141.367 19.72C141.367 21.32 141.674 22.76 142.287 24.04C142.927 25.32 143.794 26.3333 144.887 27.08C146.007 27.8 147.26 28.16 148.647 28.16ZM173.665 9.4C175.318 9.4 176.731 9.84 177.905 10.72C179.078 11.5733 179.878 12.8533 180.305 14.56L179.745 14.72L179.985 14C180.331 13.2 180.905 12.4533 181.705 11.76C182.531 11.04 183.465 10.4667 184.505 10.04C185.545 9.61333 186.598 9.4 187.665 9.4C189.345 9.4 190.691 9.76 191.705 10.48C192.745 11.2 193.491 12.1733 193.945 13.4C194.425 14.6 194.665 15.96 194.665 17.48V28.8C194.665 29.12 194.545 29.4 194.305 29.64C194.091 29.88 193.811 30 193.465 30C193.118 30 192.825 29.88 192.585 29.64C192.371 29.4 192.265 29.12 192.265 28.8V17.6C192.265 16.5067 192.091 15.5067 191.745 14.6C191.398 13.6933 190.851 12.9733 190.105 12.44C189.358 11.9067 188.358 11.64 187.105 11.64C186.011 11.64 184.958 11.9067 183.945 12.44C182.958 12.9733 182.145 13.6933 181.505 14.6C180.891 15.5067 180.585 16.5067 180.585 17.6V28.8C180.585 29.12 180.465 29.4 180.225 29.64C180.011 29.88 179.731 30 179.385 30C179.038 30 178.745 29.88 178.505 29.64C178.291 29.4 178.185 29.12 178.185 28.8V17.48C178.185 16.3867 178.025 15.4 177.705 14.52C177.385 13.64 176.865 12.9467 176.145 12.44C175.425 11.9067 174.451 11.64 173.225 11.64C172.131 11.64 171.091 11.9067 170.105 12.44C169.145 12.9467 168.358 13.64 167.745 14.52C167.158 15.4 166.865 16.3867 166.865 17.48V28.8C166.865 29.12 166.745 29.4 166.505 29.64C166.265 29.88 165.985 30 165.665 30C165.291 30 164.998 29.88 164.785 29.64C164.571 29.4 164.465 29.12 164.465 28.8V10.88C164.465 10.56 164.571 10.28 164.785 10.04C165.025 9.8 165.318 9.68 165.665 9.68C166.011 9.68 166.291 9.8 166.505 10.04C166.745 10.28 166.865 10.56 166.865 10.88V14.6L165.785 16.08C165.865 15.28 166.118 14.48 166.545 13.68C166.998 12.88 167.585 12.16 168.305 11.52C169.025 10.88 169.838 10.3733 170.745 10C171.678 9.6 172.651 9.4 173.665 9.4ZM203.269 28.8C203.269 29.12 203.149 29.4 202.909 29.64C202.669 29.88 202.389 30 202.069 30C201.722 30 201.429 29.88 201.189 29.64C200.976 29.4 200.869 29.12 200.869 28.8V10.4C200.869 10.08 200.976 9.8 201.189 9.56C201.429 9.32 201.722 9.2 202.069 9.2C202.416 9.2 202.696 9.32 202.909 9.56C203.149 9.8 203.269 10.08 203.269 10.4V28.8ZM202.069 6.52C201.509 6.52 201.082 6.4 200.789 6.16C200.522 5.89333 200.389 5.52 200.389 5.04V4.64C200.389 4.16 200.536 3.8 200.829 3.56C201.149 3.29333 201.576 3.16 202.109 3.16C202.616 3.16 203.002 3.29333 203.269 3.56C203.562 3.8 203.709 4.16 203.709 4.64V5.04C203.709 5.52 203.562 5.89333 203.269 6.16C203.002 6.4 202.602 6.52 202.069 6.52ZM219.144 9.08C220.904 9.08 222.304 9.44 223.344 10.16C224.41 10.8533 225.17 11.8133 225.624 13.04C226.104 14.24 226.344 15.5733 226.344 17.04V28.8C226.344 29.12 226.224 29.4 225.984 29.64C225.744 29.88 225.464 30 225.144 30C224.77 30 224.477 29.88 224.264 29.64C224.05 29.4 223.944 29.12 223.944 28.8V17.16C223.944 16.0933 223.77 15.12 223.424 14.24C223.077 13.36 222.504 12.6533 221.704 12.12C220.93 11.5867 219.904 11.32 218.624 11.32C217.477 11.32 216.384 11.5867 215.344 12.12C214.33 12.6533 213.504 13.36 212.864 14.24C212.224 15.12 211.904 16.0933 211.904 17.16V28.8C211.904 29.12 211.784 29.4 211.544 29.64C211.304 29.88 211.024 30 210.704 30C210.33 30 210.037 29.88 209.824 29.64C209.61 29.4 209.504 29.12 209.504 28.8V10.88C209.504 10.56 209.61 10.28 209.824 10.04C210.064 9.8 210.357 9.68 210.704 9.68C211.05 9.68 211.33 9.8 211.544 10.04C211.784 10.28 211.904 10.56 211.904 10.88V14.24L210.984 15.68C211.037 14.8267 211.304 14.0133 211.784 13.24C212.29 12.44 212.93 11.7333 213.704 11.12C214.477 10.48 215.33 9.98667 216.264 9.64C217.224 9.26667 218.184 9.08 219.144 9.08ZM241.869 30.4C239.815 30.4 238.002 29.96 236.429 29.08C234.855 28.2 233.629 26.9733 232.749 25.4C231.869 23.8267 231.429 21.9867 231.429 19.88C231.429 17.6133 231.869 15.68 232.749 14.08C233.655 12.48 234.815 11.2533 236.229 10.4C237.669 9.52 239.189 9.08 240.789 9.08C241.962 9.08 243.095 9.29333 244.189 9.72C245.309 10.12 246.295 10.7333 247.149 11.56C248.029 12.36 248.722 13.3467 249.229 14.52C249.762 15.6933 250.055 17.0533 250.109 18.6C250.082 18.92 249.949 19.2 249.709 19.44C249.469 19.6533 249.189 19.76 248.869 19.76H232.829L232.349 17.6H248.109L247.589 18.08V17.28C247.482 16.0267 247.082 14.96 246.389 14.08C245.695 13.2 244.855 12.5333 243.869 12.08C242.882 11.6267 241.855 11.4 240.789 11.4C239.989 11.4 239.162 11.56 238.309 11.88C237.482 12.2 236.722 12.7067 236.029 13.4C235.362 14.0667 234.815 14.9333 234.389 16C233.962 17.04 233.749 18.28 233.749 19.72C233.749 21.2933 234.069 22.72 234.709 24C235.349 25.28 236.269 26.2933 237.469 27.04C238.695 27.7867 240.149 28.16 241.829 28.16C242.762 28.16 243.602 28.0267 244.349 27.76C245.095 27.4933 245.749 27.1467 246.309 26.72C246.869 26.2667 247.335 25.8 247.709 25.32C248.002 25.08 248.295 24.96 248.589 24.96C248.855 24.96 249.082 25.0667 249.269 25.28C249.482 25.4933 249.589 25.7333 249.589 26C249.589 26.32 249.455 26.6 249.189 26.84C248.389 27.8 247.349 28.64 246.069 29.36C244.789 30.0533 243.389 30.4 241.869 30.4ZM256.446 30C256.073 30 255.779 29.88 255.566 29.64C255.353 29.4 255.246 29.12 255.246 28.8V10.88C255.246 10.56 255.353 10.28 255.566 10.04C255.806 9.8 256.099 9.68 256.446 9.68C256.793 9.68 257.073 9.8 257.286 10.04C257.526 10.28 257.646 10.56 257.646 10.88V16.88L257.046 17C257.126 16.0667 257.353 15.1467 257.726 14.24C258.126 13.3067 258.659 12.4533 259.326 11.68C259.993 10.9067 260.779 10.28 261.686 9.8C262.619 9.32 263.659 9.08 264.806 9.08C265.286 9.08 265.753 9.18667 266.206 9.4C266.659 9.58667 266.886 9.90667 266.886 10.36C266.886 10.76 266.779 11.0667 266.566 11.28C266.353 11.4933 266.099 11.6 265.806 11.6C265.566 11.6 265.299 11.5333 265.006 11.4C264.739 11.2667 264.379 11.2 263.926 11.2C263.179 11.2 262.433 11.4267 261.686 11.88C260.939 12.3067 260.259 12.8933 259.646 13.64C259.033 14.3867 258.539 15.2267 258.166 16.16C257.819 17.0667 257.646 17.9867 257.646 18.92V28.8C257.646 29.12 257.526 29.4 257.286 29.64C257.046 29.88 256.766 30 256.446 30Z" fill="#F5F5F5"/>
<path d="M124.268 5.08L114.548 29.24C114.442 29.5067 114.295 29.7067 114.108 29.84C113.922 29.9733 113.708 30.04 113.468 30.04C113.095 30.04 112.815 29.9467 112.628 29.76C112.442 29.5467 112.335 29.2933 112.308 29C112.282 28.8667 112.295 28.7067 112.348 28.52L122.908 2.68C123.042 2.38667 123.202 2.18667 123.388 2.08C123.602 1.94667 123.842 1.88 124.108 1.88C124.375 1.88 124.602 1.96 124.788 2.12C125.002 2.25333 125.162 2.44 125.268 2.68L135.788 28.4C135.842 28.56 135.868 28.72 135.868 28.88C135.868 29.2533 135.748 29.5467 135.508 29.76C135.268 29.9467 134.988 30.04 134.668 30.04C134.402 30.04 134.162 29.9733 133.948 29.84C133.762 29.68 133.615 29.48 133.508 29.24L123.548 4.92L124.268 5.08ZM116.868 21.92L117.868 19.56H130.268L130.748 21.92H116.868Z" fill="#2874A6"/>
</svg>
